<?xml version="1.0" encoding="utf-8"?>
<!-- Generator: Adobe Illustrator 19.2.0, SVG Export Plug-In . SVG Version: 6.00 Build 0)  -->
<svg version="1.1" id="Layer_1" xmlns="http://www.w3.org/2000/svg" xmlns:xlink="http://www.w3.org/1999/xlink" x="0px" y="0px"
	 viewBox="0 0 1920 1081" style="enable-background:new 0 0 1920 1081;" xml:space="preserve">
<style type="text/css">
	.st0{fill:#F8C09D;}
	.st1{fill:#1A1A1A;}
	.st2{fill:#443833;}
	.st3{fill:#F2F2F2;}
	.st4{fill:#44A0C1;}
	.st5{fill:#FFFFFF;}
	.st6{fill:#703B21;}
	.st7{fill:#F6AE8D;}
	.st8{fill:#EF937E;}
	.st9{fill:none;stroke:#91A89D;stroke-width:2.9104;stroke-miterlimit:10;}
	.st10{fill:none;stroke:#91A89D;stroke-width:2.9104;stroke-linecap:round;stroke-miterlimit:10;}
	.st11{fill:#E26C60;}
	.st12{fill:#333333;}
	.st13{fill:#CCCCCC;}
	.st14{fill:#738891;}
	.st15{fill:#E6E6E6;}
	.st16{fill:#00A99D;}
	.st17{fill:#0B8274;}
	.st18{fill:#069385;}
	.st19{fill:none;stroke:#808080;stroke-width:2.4076;stroke-linecap:round;stroke-miterlimit:10;}
	.st20{fill:#995C29;}
	.st21{fill:none;stroke:#FFFFFF;stroke-width:2.4831;stroke-miterlimit:10;}
	.st22{fill:none;stroke:#1A1A1A;stroke-width:4.9663;stroke-miterlimit:10;}
	.st23{fill:none;stroke:#1A1A1A;stroke-width:5.6022;stroke-miterlimit:10;}
</style>
<polygon class="st0" points="1144.2,911.4 1123.2,911.4 1077.2,569.4 1144.2,569.4 "/>
<polygon class="st0" points="1164.3,911.4 1185.3,911.4 1224.3,569.4 1158.2,569.4 "/>
<path class="st0" d="M1164.3,911.4l-10,44.8c0,0,1,14.9,12.6,14.9s13.9-11.3,15.9-21.4c1.9-10,2.5-38.3,2.5-38.3H1164.3z"/>
<path class="st1" d="M1189.9,921.8c-0.1,1.2,3.2,35.3,1.3,35.3c-2.9,0-5.9,0-5.9,0s3.5-31.4,2.3-35.3
	C1186.4,918,1189.9,921.8,1189.9,921.8z"/>
<path class="st2" d="M1156.5,946.8c3.9-2.7,5.7-2.5,11.5-1.4c5.8,1.1,10.3,4.3,13.4,6.3s1.5-11.3,1.8-22.3c0.3-11,2.1-17.9,2.1-17.9
	l0.4-3.8c0,0,5.5,2.7,4.5,10.8c-1,8.1-3.2,30.5-2.9,40.2c0.3,9.7-13.9,14.5-26.2,14.8c-12.3,0.3-11.7-3.2-11.1-9.5
	C1150.8,957.8,1152.6,949.5,1156.5,946.8z"/>
<path class="st0" d="M1123.2,911.4l-10,44.8c0,0,1,14.9,12.6,14.9s13.9-11.3,15.9-21.4c1.9-10,2.5-38.3,2.5-38.3H1123.2z"/>
<path class="st1" d="M1148.8,921.8c-0.1,1.2,3.2,35.3,1.3,35.3c-2.9,0-5.9,0-5.9,0s3.5-31.4,2.3-35.3
	C1145.3,918,1148.8,921.8,1148.8,921.8z"/>
<path class="st2" d="M1115.4,946.8c3.9-2.7,5.7-2.5,11.5-1.4c5.8,1.1,10.3,4.3,13.4,6.3c3.1,1.9,1.5-11.3,1.8-22.3
	c0.3-11,2.1-17.9,2.1-17.9l0.4-3.8c0,0,5.5,2.7,4.5,10.8c-1,8.1-3.2,30.5-2.9,40.2c0.3,9.7-13.9,14.5-26.2,14.8
	c-12.3,0.3-11.7-3.2-11.1-9.5C1109.7,957.8,1111.5,949.5,1115.4,946.8z"/>
<path class="st3" d="M1216.5,493.9l15.9-110.2c0-17.5-10.8-31.6-24.2-31.6h-103.5c-13.4,0-24.2,14.1-24.2,31.5l14.2,106.4
	c0,0-25.6,81.8-25.6,115.1s0,145,0,145h172c0,0,0-114.5,0-145S1216.5,493.9,1216.5,493.9z"/>
<path class="st3" d="M1250.5,360.3c0,0-12-8.1-40.4-8.7c-18.1-0.3,20.5,27.7,20.5,27.7L1250.5,360.3z"/>
<path class="st3" d="M1119.3,343.3c0,0-45.8-2.9-53.3,13c-7.1,15.1,16.6,23.1,16.6,23.1L1119.3,343.3z"/>
<polygon class="st0" points="1176.7,343.3 1172,386.8 1128.8,386.8 1125.5,343.3 "/>
<path class="st4" d="M1172,377.3c0,0-12.9,9.5-27.8,9.5c-14.9,0-17.7-9.5-17.7-9.5l11.4,63.8L1172,377.3z"/>
<polygon class="st5" points="1125.5,343.3 1137.9,441 1106.6,377.8 1114.6,370 1104.4,359.4 "/>
<polygon class="st5" points="1176.7,343.3 1137.9,441 1195.6,377.8 1187.6,370 1197.8,359.4 "/>
<path class="st3" d="M1175.2,434.5h19.8c3.7,0,6.7-3,6.7-6.7v-4.3h-33.3v4.3C1168.5,431.5,1171.5,434.5,1175.2,434.5z"/>
<path class="st3" d="M1058.1,503.2L1058.1,503.2c10.1,1.5,19.5-5.4,21-15.4l18.5-120.7c1.5-10.1,2.4-23.6-8.1-22.4
	c-22.6,2.5-26.3,12.4-29.5,27.1l-17.4,110.4C1041.1,492.2,1048,501.6,1058.1,503.2z"/>
<path class="st3" d="M1272.1,509L1272.1,509c9.8-2.6,15.7-12.7,13.1-22.6l-31.3-118c-2.6-9.8-12.7-15.7-22.6-13.1l0,0
	c-9.8,2.6-15.7,12.7-13.1,22.6l31.3,118C1252.1,505.8,1262.2,511.6,1272.1,509z"/>
<path class="st3" d="M1071.5,500.3L1071.5,500.3c7.8-6.6,8.7-18.3,2.1-26l-67.3-79l-28.1,23.9l67.3,79
	C1052.1,505.9,1063.8,506.9,1071.5,500.3z"/>
<circle class="st6" cx="1216.3" cy="289.8" r="32.3"/>
<path class="st6" d="M1244.8,217.9c3,27.8-6.6,56.6-38.5,81.1c-36.4,27.9-89.9,1-111.4-19.8c-21.5-20.8-44.1-79.2-16.5-121
	l148.9,3.4C1227.2,161.6,1240.8,181.5,1244.8,217.9z"/>
<path class="st0" d="M1126.5,340.9c0,13.4,10.9,24.5,24.3,24.5h0h0.2c13.4,0,24.5-11.1,24.5-24.5v-24.6h-49V340.9z"/>
<path class="st7" d="M1175.5,332.6c-8.4,4.3-16.6,8.2-23.9,8.2c-7.6,0-16.4-1.4-25.1-5.8v-16h49V332.6z"/>
<path class="st0" d="M1149.2,331.2c28,0,64-40,64-67v-91.8H1078v91.8C1078,292.6,1102.4,331.2,1149.2,331.2z"/>
<circle class="st0" cx="1215.9" cy="251.8" r="17.7"/>
<path class="st8" d="M1219.4,254.3c0-3.5-2.8-6.3-6.3-6.3c-1,0-1.9,0.2-2.7,0.6c1.1-1.8,3.1-3.1,5.4-3.1c3.5,0,6.3,2.8,6.3,6.3
	c0,2.5-1.5,4.7-3.6,5.7C1219.1,256.6,1219.4,255.5,1219.4,254.3z"/>
<path class="st6" d="M1105.5,188.7c0,0,30.3,17.7,55.3,22.9c26.7,5.6,50.8,1.2,50.8,1.2s35.3-21.6,12.9-55
	c-34.3-51.2-118.9-32.8-140.3-8.2c-22.4,25.9-8.8,68-8.8,68s5.4-0.5,13.9-10.1C1099.6,195.9,1105.5,188.7,1105.5,188.7z"/>
<path class="st9" d="M1149.1,257.5h30.5c4.6,0,8.3-3.7,8.3-8.3v-13.5c0-4.6-3.7-8.3-8.3-8.3h-30.5c-4.6,0-8.3,3.7-8.3,8.3v13.5
	C1140.8,253.8,1144.5,257.5,1149.1,257.5z"/>
<path class="st9" d="M1087.5,257.5h30.5c4.6,0,8.3-3.7,8.3-8.3v-13.5c0-4.6-3.7-8.3-8.3-8.3h-30.5c-4.6,0-8.3,3.7-8.3,8.3v13.5
	C1079.1,253.8,1082.9,257.5,1087.5,257.5z"/>
<path class="st9" d="M1140.8,242.4c0,0.4-3-3.2-7.5-3.2s-7,3.4-7,3.4"/>
<line class="st10" x1="1215.9" y1="234.1" x2="1188" y2="242.6"/>
<path class="st11" d="M1146.9,286.9c0,9-7.3,15.3-16.3,15.3l0,0c-9,0-16.3-6.3-16.3-15.3"/>
<path class="st8" d="M1134.5,273.7c0,0.6-0.7,1.1-1.4,1.1h-7.9c-2.2,0-3.3-2.5-2-4.2l9.2-11c0.7-0.8,2.1-0.3,2.1,0.7"/>
<ellipse class="st12" cx="1159.7" cy="242.6" rx="4.7" ry="8.3"/>
<ellipse class="st12" cx="1100.4" cy="242.6" rx="4.7" ry="8.3"/>
<path class="st13" d="M731.1,930.7c0,0-6.9,5.7-6.7,21.6s2.3,21.8,2.3,21.8l75-0.4c5,0,9-4,9.1-8.9c0.3-10-3.6-24.5-29-21.4
	c-28.8,3.5-30.3-12.8-30.3-12.8L731.1,930.7z"/>
<path class="st14" d="M1298.2,624.9l-126.7-18.7c-5-0.7-8.4-5.4-7.7-10.4l11.6-78.1c0.7-5,5.4-8.4,10.4-7.7l126.7,18.7
	c5,0.7,8.4,5.4,7.7,10.4l-11.6,78.1C1307.8,622.1,1303.1,625.6,1298.2,624.9z"/>
<path class="st15" d="M666.8,930.8c0,0-6.9,5.7-6.7,21.6c0.2,15.9,2.3,21.8,2.3,21.8l75-0.4c5,0,9-4,9.1-8.9
	c0.3-10-3.6-24.5-29-21.4c-28.8,3.5-30.3-12.8-30.3-12.8L666.8,930.8z"/>
<path class="st16" d="M813.6,505.7L813.6,505.7c7,7.4,18.7,7.7,26.1,0.7l75.3-71.4c7.4-7,7.7-18.7,0.7-26.1l0,0
	c-7-7.4-18.7-7.7-26.1-0.7l-75.3,71.4C806.9,486.6,806.6,498.3,813.6,505.7z"/>
<path class="st17" d="M709.6,668.3h-1.3c-41.6,0-75.4-34.2-75.4-75.8v-0.2h152v0.2C784.9,634.1,751.2,668.3,709.6,668.3z"/>
<path class="st16" d="M749.3,358L749.3,358c-8.8,5.1-11.9,16.3-6.9,25.2l68.1,119.3c5.1,8.8,16.3,11.9,25.2,6.9l0,0
	c8.8-5.1,11.9-16.3,6.9-25.2l-68.1-119.3C769.4,356,758.1,352.9,749.3,358z"/>
<path class="st16" d="M567.5,490.4L567.5,490.4c7.9,6.4,19.5,5.2,25.9-2.8l77.6-93.8c6.4-7.9,5.2-19.5-2.8-25.9l0,0
	c-7.9-6.4-19.5-5.2-25.9,2.8l-77.6,93.8C558.4,472.3,559.6,484,567.5,490.4z"/>
<rect x="651.9" y="592.3" class="st17" width="49.6" height="342"/>
<rect x="715.4" y="592.3" transform="matrix(-1 -1.224647e-16 1.224647e-16 -1 1480.3621 1526.5444)" class="st17" width="49.6" height="342"/>
<path class="st16" d="M680.1,351.7h57.7c26,0,47.2,21.1,47.2,47.2v218c0,0-21,20.5-75.3,20.5s-76.7-20.5-76.7-20.5v-218
	C632.9,372.8,654.1,351.7,680.1,351.7z"/>
<path class="st18" d="M675,567.4V525h-42v62.9c2,0.7,4.2,1.1,6.4,1.1h14C665.3,589,675,579.3,675,567.4z"/>
<g>
	<path class="st0" d="M999.8,401.6L999.8,401.6c-2.8-0.9-4.4-3.8-3.5-6.6l7.2-23.3c0.9-2.8,3.8-4.4,6.6-3.5l0,0
		c2.8,0.9,4.4,3.8,3.5,6.6l-7.2,23.3C1005.6,400.9,1002.6,402.5,999.8,401.6z"/>
	<path class="st0" d="M976.4,420.5l-6.3-5.9c-2.7-2.5-2.9-6.8-0.3-9.5l19.9-21.3c2.5-2.7,6.8-2.9,9.5-0.3l6.3,5.9
		c2.9,2.7,3,7.2,0.3,10.1l-19.3,20.7C983.8,423,979.3,423.2,976.4,420.5z"/>
	<path class="st0" d="M1002.3,393.7L1002.3,393.7c-2,2.1-5.4,2.3-7.5,0.3l-36.1-33.6c-2.1-2-2.3-5.4-0.3-7.5v0
		c2-2.1,5.4-2.3,7.5-0.3l36.1,33.6C1004.2,388.2,1004.3,391.6,1002.3,393.7z"/>
	<path class="st0" d="M991.5,398.2L991.5,398.2c-2,2.1-5.4,2.3-7.5,0.3l-17.8-16.7c-2.1-2-2.3-5.4-0.3-7.5h0c2-2.1,5.4-2.3,7.5-0.3
		l17.8,16.7C993.4,392.7,993.6,396.1,991.5,398.2z"/>
	<path class="st0" d="M986.2,407.8L986.2,407.8c-2,2.1-5.4,2.3-7.5,0.3l-17.8-16.7c-2.1-2-2.3-5.4-0.3-7.5l0,0
		c2-2.1,5.4-2.3,7.5-0.3l17.8,16.7C988.1,402.3,988.3,405.7,986.2,407.8z"/>
	<path class="st0" d="M981.9,418.3L981.9,418.3c-2,2.1-5.4,2.3-7.5,0.3l-17.8-16.7c-2.1-2-2.3-5.4-0.3-7.5v0c2-2.1,5.4-2.3,7.5-0.3
		l17.8,16.7C983.7,412.7,983.9,416.1,981.9,418.3z"/>
</g>
<path class="st17" d="M708.7,411.7l40.5-58.4c-3.7-0.9-7.5-1.2-11.4-1.2h-57.7c-4.4,0-8.6,0.5-12.6,1.6L708.7,411.7z"/>
<polygon class="st0" points="732.7,351.7 708.5,386 683.7,351.7 683.7,322.5 732.7,322.5 "/>
<path class="st7" d="M683.7,338.5c9.5,4.1,19.4,6.3,28.9,6.3c6.6,0,13.4-1.1,20.1-3.1v-15.5h-49V338.5z"/>
<path class="st18" d="M785,525h-42v42.4c0,11.9,10.1,21.6,21.9,21.6h14c2.1,0,4.1-0.4,6.1-1V525z"/>
<path class="st0" d="M707.6,333.8c-31.9,0-70.4-27.9-70.4-67.1v-47.2c0-39,31.6-70.6,70.6-70.6h0c39,0,70.6,31.6,70.6,70.6v47.2
	C778.4,305.9,756.2,333.8,707.6,333.8z"/>
<path class="st11" d="M715.4,274.5c0,12.5,10.1,22.6,22.6,22.6h0c12.5,0,22.6-10.1,22.6-22.6"/>
<path class="st8" d="M737.9,245.7v14.5c0,0.7,0.8,1.2,1.5,1.2h8.6c2.3,0,3.6-2.7,2.1-4.5l-9.9-11.9
	C739.5,244.1,737.9,244.6,737.9,245.7z"/>
<ellipse class="st12" cx="706.8" cy="237.4" rx="4.6" ry="8.1"/>
<ellipse class="st12" cx="765" cy="237.4" rx="4.6" ry="8.1"/>
<g>
	<path class="st7" d="M756.8,437.8c0,0,9-2,12.2,3.4c3.1,5.4-4.2,8.5-4.2,8.5L756.8,437.8z"/>
	<g>
		<path class="st12" d="M774.8,456.8c0,0-8.7-9.1-14.9-12.4c-6.3-3.3-10.5,5.3-4.5,8.5c6,3.2,18.7,5.5,18.7,5.5
			C775.3,458.7,775.9,457.6,774.8,456.8z"/>
		<path class="st15" d="M689.2,412.1L689.2,412.1c0.6-1.2,0.2-2.6-1-3.3l-6.9-3.7c-1.2-0.6-2.6-0.2-3.3,1l0,0
			c-0.6,1.2-0.2,2.6,1,3.3l6.9,3.7C687.2,413.7,688.6,413.3,689.2,412.1z"/>
		
			<rect x="716" y="387.3" transform="matrix(-0.4706 0.8824 -0.8824 -0.4706 1438.5317 -5.2409)" class="st12" width="9.7" height="83.4"/>
		<polyline class="st19" points="693,408.6 687,419.9 716.6,435.6 		"/>
		<path class="st12" d="M774,455.9c0.6,0.6,0.9,0.9,0.9,0.9c1,0.9,0.5,1.9-0.8,1.6c0,0-0.4-0.1-1.2-0.2L774,455.9z"/>
	</g>
	<path class="st0" d="M723.5,431.6c0,0,12.7-4.8,20.7,0.5c8,5.3,12.1,8.2,12.1,8.2l-1.5,5.3l0,0c1.6,1.5,1.8,4,0.3,5.6l-0.1,0.1
		c-1.5,1.6-4,1.7-5.6,0.3l-0.1-0.1l0,0c0.7,2.2-0.3,4.6-2.3,5.7l-0.6,0.3c-1.9,1-4.2,0.5-5.5-1.2l0,0l0,0c1,1,1.7,5.3-3.2,6.1
		c-2.3,0.4-5,0.9-9.7,0.8l0,0l-11.1-1.8L723.5,431.6z"/>
	<path class="st0" d="M703.7,441.4c6.9-2.4,16-11.7,17.9-14.2c1.9-2.5,5.8-2.2,11-2.1c5.9,0.2,10.3,0,13.6,1.8
		c4.8,2.6,17.2,15.2,18.8,16.9c3.9,3.8-2,8.7-7.3,5.4c-4.5-2.9-15.4-13.6-15.4-13.6l-10.6-0.4c0,0-8,9.3-5.6,12.9
		c2.5,3.5,3.5,3.2,3.5,3.2l3.1,9c0,0-10.8,4.9-18,5.3c-8.5,0.4-22.8,5.2-22.8,5.2l0.6-22.7C692.6,448,698.4,443.3,703.7,441.4z"/>
</g>
<path class="st16" d="M582.5,494.3l129.5-23.7l-6.7-36.3L575.8,458c-10,1.8-16.7,11.5-14.8,21.5v0
	C562.8,489.5,572.4,496.1,582.5,494.3z"/>
<path class="st20" d="M647.9,217.8c0,0,17.4-0.8,24.8-22.9c0,0,7.1,7.6,35.5,10.6c29.7,3.1,37.8-3.1,52.5,0.3
	c10.2,2.3,17.7,12,17.7,12s9.9-12.8,11.3-26.3c2.1-20.7-7.6-46.6-38.9-59.8c-51.8-21.8-81,21.5-81,21.5s-30-7.7-48.6,22.8
	c-14.5,23.8,2.1,48.6,2.1,48.6L647.9,217.8z"/>
<path class="st14" d="M875,498l-89.7-2.1c-4.9,0.2-8-5.3-5.3-9.5l66.7-101.2c1.1-1.7,2.9-2.7,4.9-2.7l92.3,2c4.9-0.2,8,5.3,5.3,9.5
	l-65.3,99C881.9,496,878.6,497.9,875,498z"/>
<g>
	<path class="st0" d="M909.3,468l-8.1-1.2c-3.5-0.5-5.9-3.8-5.4-7.3l14.4-26.1c0.5-3.5,3.8-5.9,7.3-5.4l8.1,1.2
		c3.7,0.5,6.3,4,5.7,7.7L917,462.3C915.1,466.1,913,468.6,909.3,468z"/>
	<path class="st0" d="M925.5,434.3L925.5,434.3c-0.4,2.8-3,4.7-5.7,4.3l-23-3.4c-2.8-0.4-4.7-3-4.3-5.7l0,0c0.4-2.8,3-4.7,5.7-4.3
		l23,3.4C924,429,925.9,431.6,925.5,434.3z"/>
	<path class="st0" d="M919.5,443.7L919.5,443.7c-0.4,2.8-3,4.7-5.7,4.3l-23-3.4c-2.8-0.4-4.7-3-4.3-5.7v0c0.4-2.8,3-4.7,5.7-4.3
		l23,3.4C918,438.4,919.9,440.9,919.5,443.7z"/>
	<path class="st0" d="M920.5,454.1L920.5,454.1c-0.4,2.8-3,4.7-5.7,4.3l-23-3.4c-2.8-0.4-4.7-3-4.3-5.7l0,0c0.4-2.8,3-4.7,5.7-4.3
		l23,3.4C919,448.7,920.9,451.3,920.5,454.1z"/>
	<path class="st0" d="M915.4,463.7L915.4,463.7c-0.4,2.8-3,4.7-5.7,4.3l-15.7-2.4c-2.8-0.4-4.7-3-4.3-5.7l0,0c0.4-2.8,3-4.7,5.7-4.3
		l15.7,2.4C913.9,458.3,915.8,460.9,915.4,463.7z"/>
</g>
<path class="st3" d="M1273.9,478.4L1273.9,478.4c-9.7-3-20.1,2.5-23,12.3l-30.3,99.3l35.3,10.8l30.3-99.3
	C1289.1,491.7,1283.6,481.4,1273.9,478.4z"/>
<g>
	<path class="st0" d="M1258.1,596.6l-1.4,8.3c-0.6,3.6-4,6-7.6,5.4l-28.2-4.8c-3.6-0.6-6-4-5.4-7.6l1.4-8.3c0.7-3.8,4.3-6.4,8.1-5.7
		l27.4,4.7C1256.2,589.2,1258.8,592.8,1258.1,596.6z"/>
	<path class="st0" d="M1222.5,585.7L1222.5,585.7c2.8,0.5,4.8,3.2,4.3,6l-4,23.6c-0.5,2.8-3.2,4.8-6,4.3l0,0c-2.8-0.5-4.8-3.2-4.3-6
		l4-23.6C1217,587.1,1219.7,585.2,1222.5,585.7z"/>
	<path class="st0" d="M1232,592.1L1232,592.1c2.8,0.5,4.8,3.2,4.3,6l-4,23.6c-0.5,2.8-3.2,4.8-6,4.3l0,0c-2.8-0.5-4.8-3.2-4.3-6
		l4-23.6C1226.5,593.5,1229.2,591.6,1232,592.1z"/>
	<path class="st0" d="M1242.8,591.3L1242.8,591.3c2.8,0.5,4.8,3.2,4.3,6l-4,23.6c-0.5,2.8-3.2,4.8-6,4.3l0,0c-2.8-0.5-4.8-3.2-4.3-6
		l4-23.6C1237.2,592.7,1239.9,590.8,1242.8,591.3z"/>
	<path class="st0" d="M1253.7,589.2L1253.7,589.2c2.8,0.5,4.8,3.2,4.3,6l-4,23.6c-0.5,2.8-3.2,4.8-6,4.3l0,0c-2.8-0.5-4.8-3.2-4.3-6
		l4-23.6C1248.2,590.7,1250.9,588.8,1253.7,589.2z"/>
</g>
<polygon class="st4" points="1123.7,751 1140.9,677.6 1157.5,751 "/>
<rect x="1068.8" y="750.3" class="st4" width="171.5" height="25.6"/>
<circle class="st0" cx="636.9" cy="234.9" r="20.1"/>
<path class="st8" d="M632.9,237.8c0-3.9,3.2-7.1,7.1-7.1c1.1,0,2.1,0.2,3,0.7c-1.2-2.1-3.5-3.5-6.1-3.5c-3.9,0-7.1,3.2-7.1,7.1
	c0,2.8,1.7,5.3,4.1,6.4C633.2,240.3,632.9,239.1,632.9,237.8z"/>
<g>
	<path class="st21" d="M1111.6,447.3l-10.5,1.2c-6.8-0.4-11-11.4-10.3-26.7l2-30.8c0.1-10.9,6.5-19.8,15.1-20.8l0.5-0.1
		c8.6-1,16.8,6.2,19.4,16.9l9.4,31.2c5.7,15.8-0.6,26.2-5.6,26.7l-8.8,1"/>
	<path class="st22" d="M1091.6,409.8l1.2-18.6c1.1-11.7,6.5-19.6,15.1-20.6l0.5-0.1c8.6-1,15.5,6.4,19.3,16.7l5.4,17.9"/>
	<path d="M1124.9,442.2l2.8-0.3c2-0.2,3.8,1.2,4,3.2l0.1,0.5c0.2,2-1.2,3.8-3.2,4l-2.8,0.3c-2,0.2-3.8-1.2-4-3.2l-0.1-0.5
		C1121.5,444.2,1122.9,442.4,1124.9,442.2z"/>
	<path d="M1106.4,444.3l2.8-0.3c2-0.2,3.8,1.2,4,3.2l0.1,0.5c0.2,2-1.2,3.8-3.2,4l-2.8,0.3c-2,0.2-3.8-1.2-4-3.2l-0.1-0.5
		C1102.9,446.4,1104.4,444.6,1106.4,444.3z"/>
	<path class="st23" d="M1126.3,340.8L1126.3,340.8c-7.6-1.2-15.5,10.5-17.4,21.4l-0.4,2.9l-0.8,5.5"/>
	<path class="st23" d="M1174.7,343L1174.7,343c7.7-2,24.3,12.7,22.6,41.2c-1.3,22.2-6.3,36.3-6.3,36.3"/>
	
		<ellipse transform="matrix(0.9683 -0.2499 0.2499 0.9683 -68.4834 310.4061)" class="st5" cx="1188.4" cy="425" rx="12.9" ry="12.9"/>
	<ellipse transform="matrix(0.9683 -0.2499 0.2499 0.9683 -68.4834 310.4061)" cx="1188.4" cy="425" rx="8.1" ry="8.1"/>
	
		<ellipse transform="matrix(0.9683 -0.2499 0.2499 0.9683 -68.4834 310.4061)" class="st13" cx="1188.4" cy="425" rx="5.1" ry="5.1"/>
</g>
</svg>
