<svg xmlns="http://www.w3.org/2000/svg" xmlns:xlink="http://www.w3.org/1999/xlink" version="1.1" width="256" height="256" viewBox="0 0 256 256" xml:space="preserve">

<defs>
</defs>
<g style="stroke: none; stroke-width: 0; stroke-dasharray: none; stroke-linecap: butt; stroke-linejoin: miter; stroke-miterlimit: 10; fill: none; fill-rule: nonzero; opacity: 1;" transform="translate(1.4065934065934016 1.4065934065934016) scale(2.81 2.81)" >
	<path d="M 7.439 70.362 c -0.242 0 -0.485 -0.088 -0.677 -0.265 c -0.406 -0.374 -0.432 -1.007 -0.058 -1.413 l 6.501 -7.053 c 0.189 -0.205 0.456 -0.322 0.735 -0.322 h 13.114 c 0.552 0 1 0.447 1 1 s -0.448 1 -1 1 H 14.379 l -6.204 6.73 C 7.978 70.254 7.709 70.362 7.439 70.362 z" style="stroke: none; stroke-width: 1; stroke-dasharray: none; stroke-linecap: butt; stroke-linejoin: miter; stroke-miterlimit: 10; fill: rgb(188,203,206); fill-rule: nonzero; opacity: 1;" transform=" matrix(1 0 0 1 0 0) " stroke-linecap="round" />
	<path d="M 82.561 70.362 c -0.27 0 -0.538 -0.108 -0.735 -0.322 l -6.205 -6.73 H 62.944 c -0.553 0 -1 -0.447 -1 -1 s 0.447 -1 1 -1 h 13.114 c 0.279 0 0.546 0.117 0.735 0.322 l 6.502 7.053 c 0.374 0.406 0.349 1.039 -0.058 1.413 C 83.046 70.274 82.803 70.362 82.561 70.362 z" style="stroke: none; stroke-width: 1; stroke-dasharray: none; stroke-linecap: butt; stroke-linejoin: miter; stroke-miterlimit: 10; fill: rgb(188,203,206); fill-rule: nonzero; opacity: 1;" transform=" matrix(1 0 0 1 0 0) " stroke-linecap="round" />
	<path d="M 21.955 31.741 h -8.014 c -0.279 0 -0.546 -0.117 -0.735 -0.322 l -6.501 -7.052 c -0.374 -0.406 -0.349 -1.039 0.058 -1.413 c 0.407 -0.376 1.038 -0.348 1.413 0.058 l 6.204 6.73 h 7.576 c 0.552 0 1 0.448 1 1 S 22.507 31.741 21.955 31.741 z" style="stroke: none; stroke-width: 1; stroke-dasharray: none; stroke-linecap: butt; stroke-linejoin: miter; stroke-miterlimit: 10; fill: rgb(188,203,206); fill-rule: nonzero; opacity: 1;" transform=" matrix(1 0 0 1 0 0) " stroke-linecap="round" />
	<path d="M 76.059 31.741 h -8.014 c -0.553 0 -1 -0.448 -1 -1 s 0.447 -1 1 -1 h 7.575 l 6.205 -6.73 c 0.375 -0.405 1.007 -0.432 1.413 -0.058 c 0.406 0.375 0.432 1.007 0.058 1.413 l -6.502 7.052 C 76.604 31.624 76.338 31.741 76.059 31.741 z" style="stroke: none; stroke-width: 1; stroke-dasharray: none; stroke-linecap: butt; stroke-linejoin: miter; stroke-miterlimit: 10; fill: rgb(188,203,206); fill-rule: nonzero; opacity: 1;" transform=" matrix(1 0 0 1 0 0) " stroke-linecap="round" />
	<path d="M 81.127 47.525 H 67.774 c -0.553 0 -1 -0.447 -1 -1 c 0 -0.552 0.447 -1 1 -1 h 13.353 c 0.553 0 1 0.448 1 1 C 82.127 47.078 81.68 47.525 81.127 47.525 z" style="stroke: none; stroke-width: 1; stroke-dasharray: none; stroke-linecap: butt; stroke-linejoin: miter; stroke-miterlimit: 10; fill: rgb(188,203,206); fill-rule: nonzero; opacity: 1;" transform=" matrix(1 0 0 1 0 0) " stroke-linecap="round" />
	<path d="M 22.225 47.525 H 9.633 c -0.552 0 -1 -0.447 -1 -1 c 0 -0.552 0.448 -1 1 -1 h 12.592 c 0.552 0 1 0.448 1 1 C 23.225 47.078 22.777 47.525 22.225 47.525 z" style="stroke: none; stroke-width: 1; stroke-dasharray: none; stroke-linecap: butt; stroke-linejoin: miter; stroke-miterlimit: 10; fill: rgb(188,203,206); fill-rule: nonzero; opacity: 1;" transform=" matrix(1 0 0 1 0 0) " stroke-linecap="round" />
	<path d="M 45 77.057 c 11.522 -5.292 23.045 -13.695 23.045 -36.261 V 24.267 C 60.363 23.891 52.682 20.116 45 12.943 c -7.682 7.173 -15.363 10.947 -23.045 11.324 v 16.529 C 21.955 63.361 33.478 71.765 45 77.057 L 45 77.057 z" style="stroke: none; stroke-width: 1; stroke-dasharray: none; stroke-linecap: butt; stroke-linejoin: miter; stroke-miterlimit: 10; fill: rgb(46,140,204); fill-rule: nonzero; opacity: 1;" transform=" matrix(1 0 0 1 0 0) " stroke-linecap="round" />
	<path d="M 45.185 58.722 h -0.37 c -4.501 0 -8.149 -3.648 -8.149 -8.149 v -6.331 h 16.668 v 6.331 C 53.334 55.074 49.686 58.722 45.185 58.722 z" style="stroke: none; stroke-width: 1; stroke-dasharray: none; stroke-linecap: butt; stroke-linejoin: miter; stroke-miterlimit: 10; fill: rgb(254,183,86); fill-rule: nonzero; opacity: 1;" transform=" matrix(1 0 0 1 0 0) " stroke-linecap="round" />
	<circle cx="4.436" cy="72.61600000000001" r="4.436" style="stroke: none; stroke-width: 1; stroke-dasharray: none; stroke-linecap: butt; stroke-linejoin: miter; stroke-miterlimit: 10; fill: rgb(46,140,204); fill-rule: nonzero; opacity: 1;" transform="  matrix(1 0 0 1 0 0) "/>
	<circle cx="85.566" cy="72.61600000000001" r="4.436" style="stroke: none; stroke-width: 1; stroke-dasharray: none; stroke-linecap: butt; stroke-linejoin: miter; stroke-miterlimit: 10; fill: rgb(46,140,204); fill-rule: nonzero; opacity: 1;" transform="  matrix(1 0 0 1 0 0) "/>
	<circle cx="4.436" cy="20.426000000000002" r="4.436" style="stroke: none; stroke-width: 1; stroke-dasharray: none; stroke-linecap: butt; stroke-linejoin: miter; stroke-miterlimit: 10; fill: rgb(46,140,204); fill-rule: nonzero; opacity: 1;" transform="  matrix(1 0 0 1 0 0) "/>
	<circle cx="85.566" cy="20.426000000000002" r="4.436" style="stroke: none; stroke-width: 1; stroke-dasharray: none; stroke-linecap: butt; stroke-linejoin: miter; stroke-miterlimit: 10; fill: rgb(46,140,204); fill-rule: nonzero; opacity: 1;" transform="  matrix(1 0 0 1 0 0) "/>
	<circle cx="85.566" cy="46.526" r="4.436" style="stroke: none; stroke-width: 1; stroke-dasharray: none; stroke-linecap: butt; stroke-linejoin: miter; stroke-miterlimit: 10; fill: rgb(46,140,204); fill-rule: nonzero; opacity: 1;" transform="  matrix(1 0 0 1 0 0) "/>
	<circle cx="4.436" cy="46.526" r="4.436" style="stroke: none; stroke-width: 1; stroke-dasharray: none; stroke-linecap: butt; stroke-linejoin: miter; stroke-miterlimit: 10; fill: rgb(46,140,204); fill-rule: nonzero; opacity: 1;" transform="  matrix(1 0 0 1 0 0) "/>
	<path d="M 45 53.492 c -0.552 0 -1 -0.447 -1 -1 v -2.525 c 0 -0.553 0.448 -1 1 -1 s 1 0.447 1 1 v 2.525 C 46 53.045 45.552 53.492 45 53.492 z" style="stroke: none; stroke-width: 1; stroke-dasharray: none; stroke-linecap: butt; stroke-linejoin: miter; stroke-miterlimit: 10; fill: rgb(46,140,204); fill-rule: nonzero; opacity: 1;" transform=" matrix(1 0 0 1 0 0) " stroke-linecap="round" />
	<path d="M 50.135 45.242 c -0.553 0 -1 -0.448 -1 -1 v -7.829 c 0 -2.28 -1.854 -4.135 -4.135 -4.135 s -4.135 1.855 -4.135 4.135 v 7.829 c 0 0.552 -0.448 1 -1 1 s -1 -0.448 -1 -1 v -7.829 c 0 -3.383 2.752 -6.135 6.135 -6.135 s 6.135 2.752 6.135 6.135 v 7.829 C 51.135 44.794 50.688 45.242 50.135 45.242 z" style="stroke: none; stroke-width: 1; stroke-dasharray: none; stroke-linecap: butt; stroke-linejoin: miter; stroke-miterlimit: 10; fill: rgb(254,183,86); fill-rule: nonzero; opacity: 1;" transform=" matrix(1 0 0 1 0 0) " stroke-linecap="round" />
</g>
</svg>